# xmcd
#
# Track frame offsets:
#	150
#	21799
#	40879
#	62750
#	75012
#	86538
#	106893
#	122825
#	140739
#	159775
#	178903
#	193649
#	209856
#	225591
#	243845
#	257754
#	271660
#	285334
#
# Disc length: 4053 seconds
#
# Revision: 0
# Processed by: cddbd v1.5.2PL0 Copyright (c) Steve Scherf et al.
# Submitted via: EasyCDDAExtractor 10.0.3.1
#
DISCID=ed0fd312
DTITLE=Dr. John - Goin' Back To New Orleans
DYEAR=1992
DGENRE=Blues
TTITLE0=Litanie Des Saints
TTITLE1=Careless Love
TTITLE2=My Indian Red
TTITLE3=Milneburg Joys
TTITLE4=I Thought I Heard Buddy Bolden Say
TTITLE5=Basin Street Blues
TTITLE6=Didn't He Ramble
TTITLE7=Do You Call That A Buddy?
TTITLE8=How Come My Don't Bark (When You Come Around)?
TTITLE9=Good Night, Irene
TTITLE10=Fess Up
TTITLE11=Since I Fell For You
TTITLE12=I'll Be Glad When You're Dead, You Rascal You
TTITLE13=Cabbage Head
TTITLE14=Goin' Home Tomorrow
TTITLE15=Blue Monday
TTITLE16=Scald Dog Medley/I Can't Go On
TTITLE17=Goin' Back To New Orleans
EXTD=
EXTT0=
EXTT1=
EXTT2=
EXTT3=
EXTT4=
EXTT5=
EXTT6=
EXTT7=
EXTT8=
EXTT9=
EXTT10=
EXTT11=
EXTT12=
EXTT13=
EXTT14=
EXTT15=
EXTT16=
EXTT17=
PLAYORDER=
